<!-- Multipoint - matches pin/polygon/rectangle/circle/line icon style -->
<svg version="1.1" xmlns="http://www.w3.org/2000/svg" width="36" height="32" viewBox="0 0 36 32">
<title>multipoint</title>
<!-- Left pin -->
<path d="M0,5.2C0,5.2,0.1,0,7.5,0c7.4,0,7.3,5.2,7.3,5.2v7.1L7.5,17.5L0,12.3V5.2z
	M7.4,9.5c1.9,0,3.4-1.5,3.4-3.3S9.3,2.8,7.4,2.8C5.5,2.8,4,4.3,4,6.2S5.5,9.5,7.4,9.5z"/>
<!-- Right pin -->
<path d="M21,5.2c0,0,0.1-5.2,7.5-5.2c7.4,0,7.3,5.2,7.3,5.2v7.1L28.5,17.5L21,12.3V5.2z
	M28.4,9.5c1.9,0,3.4-1.5,3.4-3.3s-1.5-3.4-3.4-3.4c-1.9,0-3.4,1.5-3.4,3.4S26.5,9.5,28.4,9.5z"/>
<!-- Bottom center pin -->
<path d="M10.5,19.7c0,0,0.1-5.2,7.5-5.2c7.4,0,7.3,5.2,7.3,5.2v7.1L18,32l-7.5-5.2V19.7z
	M17.9,24c1.9,0,3.4-1.5,3.4-3.3s-1.5-3.4-3.4-3.4c-1.9,0-3.4,1.5-3.4,3.4S16,24,17.9,24z"/>
</svg>
